<svg width="172" height="54" viewBox="0 0 172 54" fill="none" xmlns="http://www.w3.org/2000/svg">
<line x1="146.954" y1="16.9403" x2="156.94" y2="6.04607" stroke="white" stroke-width="1.5" stroke-linecap="round"/>
<line x1="138.056" y1="6.09603" x2="147.096" y2="16.9437" stroke="white" stroke-width="1.5" stroke-linecap="round"/>
<line x1="137.75" y1="5.25" x2="157.25" y2="5.25" stroke="white" stroke-width="1.5" stroke-linecap="round"/>
<circle cx="136.5" cy="5.5" r="5.5" fill="white"/>
<circle cx="157.5" cy="5.5" r="5.5" fill="white"/>
<path d="M19.3847 29.16C18.8087 28.0507 18.0087 27.2187 16.9847 26.664C15.9607 26.088 14.7767 25.8 13.4327 25.8C11.9607 25.8 10.6487 26.1307 9.49675 26.792C8.34475 27.4533 7.43808 28.392 6.77675 29.608C6.13675 30.824 5.81675 32.232 5.81675 33.832C5.81675 35.432 6.13675 36.8507 6.77675 38.088C7.43808 39.304 8.34475 40.2427 9.49675 40.904C10.6487 41.5653 11.9607 41.896 13.4327 41.896C15.4167 41.896 17.0274 41.3413 18.2647 40.232C19.5021 39.1227 20.2594 37.6187 20.5367 35.72H12.1847V32.808H24.4408V35.656C24.2061 37.384 23.5874 38.9733 22.5847 40.424C21.6034 41.8747 20.3127 43.0373 18.7127 43.912C17.1341 44.7653 15.3741 45.192 13.4327 45.192C11.3421 45.192 9.43275 44.712 7.70475 43.752C5.97675 42.7707 4.60075 41.416 3.57675 39.688C2.57408 37.96 2.07275 36.008 2.07275 33.832C2.07275 31.656 2.57408 29.704 3.57675 27.976C4.60075 26.248 5.97675 24.904 7.70475 23.944C9.45408 22.9627 11.3634 22.472 13.4327 22.472C15.8007 22.472 17.9021 23.0587 19.7367 24.232C21.5927 25.384 22.9367 27.0267 23.7687 29.16H19.3847ZM43.5588 35.752C43.5588 36.4133 43.5161 37.0107 43.4307 37.544H29.9587C30.0654 38.952 30.5881 40.0827 31.5267 40.936C32.4654 41.7893 33.6174 42.216 34.9827 42.216C36.9454 42.216 38.3321 41.3947 39.1427 39.752H43.0787C42.5454 41.3733 41.5747 42.7067 40.1667 43.752C38.7801 44.776 37.0521 45.288 34.9827 45.288C33.2974 45.288 31.7827 44.9147 30.4387 44.168C29.1161 43.4 28.0707 42.3333 27.3027 40.968C26.5561 39.5813 26.1827 37.9813 26.1827 36.168C26.1827 34.3547 26.5454 32.7653 27.2707 31.4C28.0174 30.0133 29.0521 28.9467 30.3747 28.2C31.7187 27.4533 33.2547 27.08 34.9827 27.08C36.6467 27.08 38.1294 27.4427 39.4307 28.168C40.7321 28.8933 41.7454 29.9173 42.4707 31.24C43.1961 32.5413 43.5588 34.0453 43.5588 35.752ZM39.7507 34.6C39.7294 33.256 39.2494 32.1787 38.3107 31.368C37.3721 30.5573 36.2094 30.152 34.8227 30.152C33.5641 30.152 32.4867 30.5573 31.5907 31.368C30.6947 32.1573 30.1614 33.2347 29.9907 34.6H39.7507ZM55.4047 27.08C56.7914 27.08 58.0287 27.368 59.1167 27.944C60.2261 28.52 61.0901 29.3733 61.7087 30.504C62.3274 31.6347 62.6368 33 62.6368 34.6V45H59.0208V35.144C59.0208 33.5653 58.6261 32.36 57.8368 31.528C57.0474 30.6747 55.9701 30.248 54.6047 30.248C53.2394 30.248 52.1514 30.6747 51.3407 31.528C50.5514 32.36 50.1567 33.5653 50.1567 35.144V45H46.5087V27.368H50.1567V29.384C50.7541 28.6587 51.5114 28.0933 52.4288 27.688C53.3674 27.2827 54.3594 27.08 55.4047 27.08ZM82.81 35.752C82.81 36.4133 82.7673 37.0107 82.682 37.544H69.21C69.3167 38.952 69.8393 40.0827 70.778 40.936C71.7167 41.7893 72.8687 42.216 74.234 42.216C76.1967 42.216 77.5833 41.3947 78.394 39.752H82.33C81.7967 41.3733 80.826 42.7067 79.418 43.752C78.0313 44.776 76.3033 45.288 74.234 45.288C72.5487 45.288 71.034 44.9147 69.69 44.168C68.3673 43.4 67.322 42.3333 66.554 40.968C65.8073 39.5813 65.434 37.9813 65.434 36.168C65.434 34.3547 65.7967 32.7653 66.522 31.4C67.2687 30.0133 68.3033 28.9467 69.626 28.2C70.97 27.4533 72.506 27.08 74.234 27.08C75.898 27.08 77.3807 27.4427 78.682 28.168C79.9833 28.8933 80.9967 29.9173 81.722 31.24C82.4473 32.5413 82.81 34.0453 82.81 35.752ZM79.002 34.6C78.9807 33.256 78.5007 32.1787 77.562 31.368C76.6233 30.5573 75.4607 30.152 74.074 30.152C72.8153 30.152 71.738 30.5573 70.842 31.368C69.946 32.1573 69.4127 33.2347 69.242 34.6H79.002Z" fill="white"/>
<rect x="87" y="16" width="85" height="36" rx="7.5" fill="white"/>
<path d="M112.403 40.744H103.507L102.035 45H97.3314L105.363 22.632H110.579L118.611 45H113.875L112.403 40.744ZM111.187 37.16L107.955 27.816L104.723 37.16H111.187ZM125.454 29.832C126.03 29.0213 126.819 28.3493 127.822 27.816C128.846 27.2613 130.008 26.984 131.31 26.984C132.824 26.984 134.19 27.3573 135.406 28.104C136.643 28.8507 137.614 29.9173 138.318 31.304C139.043 32.6693 139.406 34.2587 139.406 36.072C139.406 37.8853 139.043 39.496 138.318 40.904C137.614 42.2907 136.643 43.368 135.406 44.136C134.19 44.904 132.824 45.288 131.31 45.288C130.008 45.288 128.856 45.0213 127.854 44.488C126.872 43.9547 126.072 43.2827 125.454 42.472V53.448H120.974V27.272H125.454V29.832ZM134.83 36.072C134.83 35.0053 134.606 34.088 134.158 33.32C133.731 32.5307 133.155 31.9333 132.43 31.528C131.726 31.1227 130.958 30.92 130.126 30.92C129.315 30.92 128.547 31.1333 127.822 31.56C127.118 31.9653 126.542 32.5627 126.094 33.352C125.667 34.1413 125.454 35.0693 125.454 36.136C125.454 37.2027 125.667 38.1307 126.094 38.92C126.542 39.7093 127.118 40.3173 127.822 40.744C128.547 41.1493 129.315 41.352 130.126 41.352C130.958 41.352 131.726 41.1387 132.43 40.712C133.155 40.2853 133.731 39.6773 134.158 38.888C134.606 38.0987 134.83 37.16 134.83 36.072ZM146.501 29.832C147.077 29.0213 147.866 28.3493 148.869 27.816C149.893 27.2613 151.056 26.984 152.357 26.984C153.872 26.984 155.237 27.3573 156.453 28.104C157.69 28.8507 158.661 29.9173 159.365 31.304C160.09 32.6693 160.453 34.2587 160.453 36.072C160.453 37.8853 160.09 39.496 159.365 40.904C158.661 42.2907 157.69 43.368 156.453 44.136C155.237 44.904 153.872 45.288 152.357 45.288C151.056 45.288 149.904 45.0213 148.901 44.488C147.92 43.9547 147.12 43.2827 146.501 42.472V53.448H142.021V27.272H146.501V29.832ZM155.877 36.072C155.877 35.0053 155.653 34.088 155.205 33.32C154.778 32.5307 154.202 31.9333 153.477 31.528C152.773 31.1227 152.005 30.92 151.173 30.92C150.362 30.92 149.594 31.1333 148.869 31.56C148.165 31.9653 147.589 32.5627 147.141 33.352C146.714 34.1413 146.501 35.0693 146.501 36.136C146.501 37.2027 146.714 38.1307 147.141 38.92C147.589 39.7093 148.165 40.3173 148.869 40.744C149.594 41.1493 150.362 41.352 151.173 41.352C152.005 41.352 152.773 41.1387 153.477 40.712C154.202 40.2853 154.778 39.6773 155.205 38.888C155.653 38.0987 155.877 37.16 155.877 36.072Z" fill="black"/>
</svg>
